<?xml version="1.0" encoding="UTF-8" standalone="no"?><!DOCTYPE svg PUBLIC "-//W3C//DTD SVG 1.1//EN" "http://www.w3.org/Graphics/SVG/1.1/DTD/svg11.dtd"><svg width="100%" height="100%" viewBox="0 0 265 303" version="1.1" xmlns="http://www.w3.org/2000/svg" xmlns:xlink="http://www.w3.org/1999/xlink" xml:space="preserve" xmlns:serif="http://www.serif.com/" style="fill-rule:evenodd;clip-rule:evenodd;stroke-linecap:round;stroke-linejoin:round;stroke-miterlimit:1.5;"><g id="Logo-2" serif:id="Logo 2"><g><path d="M17.283,278.432l0,10.503l4.411,-0l-0,1.627l-4.411,-0l0,12.13l-2.23,-0l-0,-25.887l7.756,-0l-0,1.627l-5.526,0Z" style="fill:#ba4854;fill-rule:nonzero;"/><path d="M39.332,302.729l0,-19.452l2.231,-0l-0,19.452l-2.231,-0Zm0,-22.707l2.231,0l-0,2.441l-2.231,-0l0,-2.441Z" style="fill:#fff;fill-rule:nonzero;"/><path d="M63.004,283.277c0.98,-0 1.808,0.246 2.484,0.739c0.676,0.493 1.014,1.097 1.014,1.812l-0,16.901l-2.231,-0l0,-16.901c0,-0.246 -0.118,-0.462 -0.355,-0.647c-0.236,-0.185 -0.541,-0.277 -0.912,-0.277l-1.876,-0c-0.372,-0 -0.676,0.092 -0.913,0.277c-0.236,0.185 -0.354,0.401 -0.354,0.647l-0,16.901l-2.231,-0l0,-19.452l2.231,-0l-0,0.184c0.439,-0.123 0.861,-0.184 1.267,-0.184l1.876,-0Z" style="fill:#fff;fill-rule:nonzero;"/><path d="M84.749,293.816l-0,6.361c-0,0.271 0.118,0.493 0.355,0.666c0.236,0.172 0.54,0.258 0.912,0.258l1.876,0c0.372,0 0.676,-0.086 0.912,-0.258c0.237,-0.173 0.355,-0.395 0.355,-0.666l0,-2.293l2.231,0l-0,2.293c-0,0.715 -0.338,1.319 -1.014,1.812c-0.676,0.493 -1.504,0.74 -2.484,0.74l-1.876,-0c-0.98,-0 -1.808,-0.247 -2.484,-0.74c-0.676,-0.493 -1.014,-1.097 -1.014,-1.812l0,-14.349c0,-0.715 0.338,-1.319 1.014,-1.812c0.676,-0.493 1.504,-0.739 2.484,-0.739l1.876,-0c0.98,-0 1.808,0.246 2.484,0.739c0.676,0.493 1.014,1.097 1.014,1.812l-0,7.988l-6.641,0Zm-0,-1.627l4.41,0l0,-6.361c0,-0.246 -0.118,-0.462 -0.355,-0.647c-0.236,-0.185 -0.54,-0.277 -0.912,-0.277l-1.876,-0c-0.372,-0 -0.676,0.092 -0.912,0.277c-0.237,0.185 -0.355,0.401 -0.355,0.647l-0,6.361Z" style="fill:#fff;fill-rule:nonzero;"/><path d="M114.047,282.463l0,-3.106c0,-0.272 -0.118,-0.493 -0.355,-0.666c-0.236,-0.173 -0.54,-0.259 -0.912,-0.259l-1.876,0c-0.372,0 -0.676,0.086 -0.912,0.259c-0.237,0.173 -0.355,0.394 -0.355,0.666l-0,6.175c-0,0.346 0.152,0.703 0.456,1.073c0.304,0.37 0.676,0.629 1.115,0.776l2.282,0.851c0.777,0.271 1.436,0.733 1.977,1.387c0.54,0.653 0.811,1.288 0.811,1.904l-0,8.617c-0,0.715 -0.338,1.319 -1.014,1.812c-0.676,0.493 -1.504,0.74 -2.484,0.74l-1.876,-0c-0.98,-0 -1.808,-0.247 -2.484,-0.74c-0.676,-0.493 -1.014,-1.097 -1.014,-1.812l0,-3.92l2.231,-0l-0,3.92c-0,0.271 0.118,0.493 0.355,0.666c0.236,0.172 0.54,0.258 0.912,0.258l1.876,0c0.372,0 0.676,-0.086 0.912,-0.258c0.237,-0.173 0.355,-0.395 0.355,-0.666l0,-8.617c0,-0.345 -0.16,-0.702 -0.481,-1.072c-0.321,-0.37 -0.685,-0.629 -1.09,-0.777l-2.282,-0.813c-0.777,-0.296 -1.436,-0.765 -1.977,-1.406c-0.54,-0.641 -0.811,-1.282 -0.811,-1.923l0,-6.175c0,-0.715 0.338,-1.319 1.014,-1.812c0.676,-0.494 1.504,-0.74 2.484,-0.74l1.876,-0c0.98,-0 1.808,0.246 2.484,0.74c0.676,0.493 1.014,1.097 1.014,1.812l-0,3.106l-2.231,-0Z" style="fill:#c14b58;fill-rule:nonzero;"/><path d="M141.166,297.884l-0,2.293c-0,0.715 -0.338,1.319 -1.014,1.812c-0.676,0.493 -1.504,0.74 -2.484,0.74l-1.876,-0c-0.98,-0 -1.808,-0.247 -2.484,-0.74c-0.676,-0.493 -1.014,-1.097 -1.014,-1.812l0,-14.349c0,-0.715 0.338,-1.319 1.014,-1.812c0.676,-0.493 1.504,-0.739 2.484,-0.739l1.876,-0c0.98,-0 1.808,0.246 2.484,0.739c0.676,0.493 1.014,1.097 1.014,1.812l-0,1.516l-2.231,0l0,-1.516c0,-0.246 -0.118,-0.462 -0.355,-0.647c-0.236,-0.185 -0.54,-0.277 -0.912,-0.277l-1.876,-0c-0.372,-0 -0.676,0.092 -0.912,0.277c-0.237,0.185 -0.355,0.401 -0.355,0.647l-0,14.349c-0,0.271 0.118,0.493 0.355,0.666c0.236,0.172 0.54,0.258 0.912,0.258l1.876,0c0.372,0 0.676,-0.086 0.912,-0.258c0.237,-0.173 0.355,-0.395 0.355,-0.666l0,-2.293l2.231,0Z" style="fill:#fff;fill-rule:nonzero;"/><path d="M162.201,283.277c0.98,-0 1.808,0.246 2.484,0.739c0.676,0.493 1.014,1.097 1.014,1.812l0,16.901l-2.23,-0l-0,-16.901c-0,-0.246 -0.119,-0.462 -0.355,-0.647c-0.237,-0.185 -0.541,-0.277 -0.913,-0.277l-1.876,-0c-0.371,-0 -0.675,0.092 -0.912,0.277c-0.237,0.185 -0.355,0.401 -0.355,0.647l0,16.901l-2.231,-0l0,-25.924l2.231,-0l0,6.656c0.439,-0.123 0.862,-0.184 1.267,-0.184l1.876,-0Z" style="fill:#fff;fill-rule:nonzero;"/><rect x="181.716" y="276.805" width="2.231" height="25.924" style="fill:#fff;fill-rule:nonzero;"/><path d="M200.267,302.729l-0,-19.452l2.23,-0l0,19.452l-2.23,-0Zm-0,-22.707l2.23,0l0,2.441l-2.23,-0l-0,-2.441Z" style="fill:#fff;fill-rule:nonzero;"/><path d="M224.344,278.432c-0.372,0 -0.685,0.093 -0.938,0.277c-0.254,0.185 -0.38,0.413 -0.38,0.685l-0,3.883l2.18,-0l-0,1.627l-2.18,-0l-0,17.825l-2.231,-0l0,-17.825l-2.23,-0l-0,-1.627l2.23,-0l0,-3.883c0,-0.715 0.347,-1.326 1.039,-1.831c0.693,-0.505 1.53,-0.758 2.51,-0.758l2.281,-0l0,1.627l-2.281,0Z" style="fill:#fff;fill-rule:nonzero;"/><path d="M247.508,278.432c-0.372,0 -0.684,0.093 -0.938,0.277c-0.253,0.185 -0.38,0.413 -0.38,0.685l0,3.883l2.18,-0l0,1.627l-2.18,-0l0,17.825l-2.23,-0l-0,-17.825l-2.231,-0l-0,-1.627l2.231,-0l-0,-3.883c-0,-0.715 0.346,-1.326 1.039,-1.831c0.693,-0.505 1.529,-0.758 2.509,-0.758l2.281,-0l0,1.627l-2.281,0Z" style="fill:#fff;fill-rule:nonzero;"/></g><g><path d="M139.404,241.48c-11.617,0 -21.049,-9.697 -21.049,-21.641c0,-11.944 9.432,-21.641 21.049,-21.641" style="fill:none;stroke:#d22b3d;stroke-width:14.02px;"/><path d="M160.314,219.839c11.617,0 21.049,9.697 21.049,21.641c-0,11.945 -9.432,21.642 -21.049,21.642" style="fill:none;stroke:#d22b3d;stroke-width:14.02px;"/><path d="M118.355,186.808c0,-11.944 9.432,-21.641 21.049,-21.641" style="fill:none;stroke:#d22b3d;stroke-width:14.02px;"/><path d="M202.273,205.21l-62.869,0l-0,-14.024l62.869,-0c3.873,-0 7.012,3.139 7.012,7.012c0,3.873 -3.139,7.012 -7.012,7.012Z" style="fill:#d22b3d;"/><path d="M160.314,263.122l-62.869,-0l62.869,-0Z" style="fill:none;stroke:#d22b3d;stroke-width:14.02px;"/><path d="M139.404,165.167l86.41,-0l-86.41,-0Z" style="fill:none;stroke:#d22b3d;stroke-width:14.02px;"/><path d="M139.404,241.48l20.772,0" style="fill:none;stroke:#d22b3d;stroke-width:14.02px;"/><path d="M160.314,219.839l-20.772,0" style="fill:none;stroke:#d22b3d;stroke-width:14.02px;"/><path d="M98.457,21.247c6.321,-12.997 19.507,-21.247 33.96,-21.247c14.453,0 27.638,8.25 33.959,21.247l94.663,194.655c5.692,11.703 4.956,25.512 -1.947,36.544c-6.902,11.032 -18.999,17.733 -32.012,17.733l-189.304,0c-13.018,0 -25.119,-6.703 -32.024,-17.739c-6.905,-11.037 -7.641,-24.851 -1.948,-36.558l94.653,-194.635Zm12.612,6.134l-94.653,194.634c-3.579,7.361 -3.117,16.047 1.225,22.986c4.341,6.939 11.95,11.154 20.135,11.154l189.304,-0c8.18,-0 15.784,-4.212 20.123,-11.147c4.339,-6.935 4.802,-15.616 1.224,-22.972l-94.663,-194.655c-3.973,-8.171 -12.262,-13.357 -21.347,-13.357c-9.086,0 -17.374,5.186 -21.348,13.357Z" style="fill:#d22b3d;"/></g></g></svg>