<?xml version="1.0" encoding="UTF-8" standalone="no"?><!DOCTYPE svg PUBLIC "-//W3C//DTD SVG 1.1//EN" "http://www.w3.org/Graphics/SVG/1.1/DTD/svg11.dtd"><svg width="100%" height="100%" viewBox="0 0 265 271" version="1.1" xmlns="http://www.w3.org/2000/svg" xmlns:xlink="http://www.w3.org/1999/xlink" xml:space="preserve" xmlns:serif="http://www.serif.com/" style="fill-rule:evenodd;clip-rule:evenodd;stroke-linecap:round;stroke-linejoin:round;stroke-miterlimit:1.5;"><g><path d="M139.404,241.48c-11.617,0 -21.049,-9.697 -21.049,-21.641c0,-11.944 9.432,-21.641 21.049,-21.641" style="fill:none;stroke:#d22b3d;stroke-width:14.02px;"/><path d="M160.314,219.839c11.617,0 21.049,9.697 21.049,21.641c-0,11.945 -9.432,21.642 -21.049,21.642" style="fill:none;stroke:#d22b3d;stroke-width:14.02px;"/><path d="M118.355,186.808c0,-11.944 9.432,-21.641 21.049,-21.641" style="fill:none;stroke:#d22b3d;stroke-width:14.02px;"/><path d="M202.273,205.21l-62.869,0l-0,-14.024l62.869,-0c3.873,-0 7.012,3.139 7.012,7.012c0,3.873 -3.139,7.012 -7.012,7.012Z" style="fill:#d22b3d;"/><path d="M160.314,263.122l-62.869,-0l62.869,-0Z" style="fill:none;stroke:#d22b3d;stroke-width:14.02px;"/><path d="M139.404,165.167l86.41,-0l-86.41,-0Z" style="fill:none;stroke:#d22b3d;stroke-width:14.02px;"/><path d="M139.404,241.48l20.772,0" style="fill:none;stroke:#d22b3d;stroke-width:14.02px;"/><path d="M160.314,219.839l-20.772,0" style="fill:none;stroke:#d22b3d;stroke-width:14.02px;"/><path d="M98.457,21.247c6.321,-12.997 19.507,-21.247 33.96,-21.247c14.453,0 27.638,8.25 33.959,21.247l94.663,194.655c5.692,11.703 4.956,25.512 -1.947,36.544c-6.902,11.032 -18.999,17.733 -32.012,17.733l-189.304,0c-13.018,0 -25.119,-6.703 -32.024,-17.739c-6.905,-11.037 -7.641,-24.851 -1.948,-36.558l94.653,-194.635Zm12.612,6.134l-94.653,194.634c-3.579,7.361 -3.117,16.047 1.225,22.986c4.341,6.939 11.95,11.154 20.135,11.154l189.304,-0c8.18,-0 15.784,-4.212 20.123,-11.147c4.339,-6.935 4.802,-15.616 1.224,-22.972l-94.663,-194.655c-3.973,-8.171 -12.262,-13.357 -21.347,-13.357c-9.086,0 -17.374,5.186 -21.348,13.357Z" style="fill:#d22b3d;"/></g></svg>