<?xml version="1.0" encoding="UTF-8" standalone="no"?><!DOCTYPE svg PUBLIC "-//W3C//DTD SVG 1.1//EN" "http://www.w3.org/Graphics/SVG/1.1/DTD/svg11.dtd"><svg width="100%" height="100%" viewBox="0 0 398 398" version="1.1" xmlns="http://www.w3.org/2000/svg" xmlns:xlink="http://www.w3.org/1999/xlink" xml:space="preserve" xmlns:serif="http://www.serif.com/" style="fill-rule:evenodd;clip-rule:evenodd;stroke-linejoin:round;stroke-miterlimit:2;"><g id="facebook" opacity="0.7"><path d="M397.354,198.678c0,109.726 -88.951,198.677 -198.677,198.677c-109.727,0 -198.677,-88.951 -198.677,-198.677l0,-0.001c0,-109.726 88.95,-198.677 198.677,-198.677c109.726,0 198.677,88.951 198.677,198.677l0,0.001Z" style="fill:#d94a5b;fill-rule:nonzero;"/><path d="M257.541,183.265l-3.31,26.576c-0.557,4.445 -4.319,7.782 -8.777,7.782l-43.049,-0l0,111.128c-4.544,0.411 -9.142,0.617 -13.792,0.617c-10.396,-0 -20.553,-1.042 -30.364,-3.019l0,-108.726l-33.111,-0c-3.039,-0 -5.52,-2.494 -5.52,-5.54l0,-33.256c0,-3.045 2.481,-5.54 5.52,-5.54l33.111,-0l0,-49.882c0,-30.609 24.712,-55.421 55.195,-55.421l38.631,-0c3.038,-0 5.519,2.495 5.519,5.54l0,33.256c0,3.045 -2.481,5.54 -5.519,5.54l-27.598,-0c-12.187,-0 -22.072,9.924 -22.072,22.171l0,38.796l46.359,-0c5.321,-0 9.434,4.684 8.777,9.978Z" style="fill:#fff;fill-rule:nonzero;"/></g></svg>