<?xml version="1.0" encoding="UTF-8" standalone="no"?><!DOCTYPE svg PUBLIC "-//W3C//DTD SVG 1.1//EN" "http://www.w3.org/Graphics/SVG/1.1/DTD/svg11.dtd"><svg width="100%" height="100%" viewBox="0 0 398 398" version="1.1" xmlns="http://www.w3.org/2000/svg" xmlns:xlink="http://www.w3.org/1999/xlink" xml:space="preserve" xmlns:serif="http://www.serif.com/" style="fill-rule:evenodd;clip-rule:evenodd;stroke-linejoin:round;stroke-miterlimit:2;"><g id="instagram" opacity="0.7"><path d="M397.35,198.678c0,109.726 -88.95,198.677 -198.67,198.677c-109.73,0 -198.68,-88.951 -198.68,-198.677l0,-0.001c0,-109.726 88.95,-198.677 198.68,-198.677c109.72,0 198.67,88.951 198.67,198.677l0,0.001Z" style="fill:#d94a5b;fill-rule:nonzero;"/><path d="M284.92,248.986c0,19.836 -16.1,35.935 -35.93,35.935l-100.62,-0c-19.84,-0 -35.94,-16.099 -35.94,-35.935l0,-100.62c0,-19.836 16.1,-35.935 35.94,-35.935l100.62,-0c19.83,-0 35.93,16.099 35.93,35.935l0,100.62Zm-32.34,-154.523l-107.81,-0c-27.77,-0 -50.31,22.531 -50.31,50.31l0,107.806c0,27.778 22.54,50.31 50.31,50.31l107.81,-0c27.78,-0 50.31,-22.532 50.31,-50.31l0,-107.806c0,-27.779 -22.53,-50.31 -50.31,-50.31Z" style="fill:#fff;fill-rule:nonzero;"/><path d="M198.78,234.612c-19.8,0 -35.94,-16.135 -35.94,-35.936c0,-19.801 16.14,-35.936 35.94,-35.936c19.8,0 35.94,16.135 35.94,35.936c0,19.801 -16.14,35.936 -35.94,35.936Zm0,-89.839c-29.76,0 -53.9,24.148 -53.9,53.903c0,29.755 24.14,53.903 53.9,53.903c29.75,0 53.9,-24.148 53.9,-53.903c0,-29.755 -24.15,-53.903 -53.9,-53.903Z" style="fill:#fff;fill-rule:nonzero;"/><path d="M256.28,151.96c-5.95,0 -10.78,-4.836 -10.78,-10.781c-0,-5.944 4.83,-10.781 10.78,-10.781c5.94,0 10.78,4.837 10.78,10.781c-0,5.945 -4.84,10.781 -10.78,10.781Z" style="fill:#fff;fill-rule:nonzero;"/></g></svg>