<?xml version="1.0" encoding="UTF-8" standalone="no"?><!DOCTYPE svg PUBLIC "-//W3C//DTD SVG 1.1//EN" "http://www.w3.org/Graphics/SVG/1.1/DTD/svg11.dtd"><svg width="100%" height="100%" viewBox="0 0 398 398" version="1.1" xmlns="http://www.w3.org/2000/svg" xmlns:xlink="http://www.w3.org/1999/xlink" xml:space="preserve" xmlns:serif="http://www.serif.com/" style="fill-rule:evenodd;clip-rule:evenodd;stroke-linejoin:round;stroke-miterlimit:2;"><g id="whatsapp"><path d="M397.35,198.67c-0,109.73 -88.95,198.68 -198.67,198.68c-109.73,-0 -198.68,-88.95 -198.68,-198.68c0,-109.72 88.95,-198.67 198.68,-198.67c109.72,0 198.67,88.95 198.67,198.67Z" style="fill:#00020b;fill-rule:nonzero;"/><path d="M201.93,285.25c-17.36,-0 -33.61,-4.69 -47.6,-12.87c-1.32,-0.74 -2.59,-1.53 -3.83,-2.35l-38.14,10.16l10.16,-38.14c-9.63,-14.81 -15.22,-32.46 -15.22,-51.43c0,-52.17 42.46,-94.63 94.63,-94.63c52.17,-0 94.64,42.46 94.64,94.63c-0,52.17 -42.47,94.63 -94.64,94.63Zm-3.97,-213.88c-61.41,1.99 -112.12,51.72 -115.19,113.08c-1.11,22.12 3.77,43.03 13.26,61.18l-13.33,59.7c-0.57,2.7 1.82,5.09 4.52,4.53l59.7,-13.33l0.04,-0c18.03,9.42 38.72,14.3 60.68,13.28c61.26,-2.84 111.15,-53.17 113.52,-114.45c2.68,-69.41 -53.89,-126.24 -123.2,-123.99Z" style="fill:#fff;fill-rule:nonzero;"/><path d="M258.05,232.28c-1.65,2.47 -3.38,4.78 -6.14,7.55c-6.07,6.06 -14.48,9.12 -23.02,8.25c-15.31,-1.57 -37.05,-10.03 -55.73,-28.67c-18.69,-18.69 -27.15,-40.43 -28.67,-55.73c-0.87,-8.54 2.18,-16.96 8.25,-23.02c2.76,-2.76 5.07,-4.5 7.55,-6.19c4.58,-3.09 10.8,-1.03 12.54,4.17l6.27,18.81c1.73,5.16 0.95,8.41 -1.28,10.6l-5,5.04c-2.47,2.47 -2.88,6.31 -0.99,9.28c2.77,4.33 7.97,11.26 17.54,20.83c9.57,9.57 16.5,14.77 20.83,17.53c2.97,1.9 6.81,1.49 9.28,-0.99l5.04,-4.99c2.18,-2.23 5.44,-3.01 10.6,-1.28l18.81,6.27c5.2,1.73 7.26,7.96 4.12,12.54Z" style="fill:#fff;fill-rule:nonzero;"/></g></svg>