<?xml version="1.0" encoding="UTF-8" standalone="no"?><!DOCTYPE svg PUBLIC "-//W3C//DTD SVG 1.1//EN" "http://www.w3.org/Graphics/SVG/1.1/DTD/svg11.dtd"><svg width="100%" height="100%" viewBox="0 0 398 398" version="1.1" xmlns="http://www.w3.org/2000/svg" xmlns:xlink="http://www.w3.org/1999/xlink" xml:space="preserve" xmlns:serif="http://www.serif.com/" style="fill-rule:evenodd;clip-rule:evenodd;stroke-linejoin:round;stroke-miterlimit:2;"><g id="youtube" opacity="0.7"><path d="M397.36,198.678c0,109.726 -88.95,198.677 -198.68,198.677c-109.73,0 -198.68,-88.951 -198.68,-198.677l0,-0.001c0,-109.726 88.95,-198.677 198.68,-198.677c109.73,0 198.68,88.951 198.68,198.677l0,0.001Z" style="fill:#d94a5b;fill-rule:nonzero;stroke:#fff;stroke-width:1px;"/><path d="M226.19,206.068l-47.62,23.795c-5.49,2.752 -11.96,-1.241 -11.96,-7.382l0,-47.599c0,-6.141 6.47,-10.134 11.96,-7.39l47.62,23.803c6.08,3.038 6.08,11.727 0,14.773Zm58.11,-91.573l-171.24,0c-16.92,0 -30.63,13.719 -30.63,30.63l0,107.105c0,16.919 13.71,30.63 30.63,30.63l171.24,0c16.92,0 30.63,-13.711 30.63,-30.63l0,-107.105c0,-16.911 -13.71,-30.63 -30.63,-30.63Z" style="fill:#fff;fill-rule:nonzero;"/></g></svg>